# xmcd CD database file
#
# Track frame offsets:
#	150
#	12715
#	26355
#	52215
#	79351
#	91698
#	105513
#	118389
#	132500
#	144783
#	159633
#	174625
#	190046
#	202173
#	215665
#	230631
#	242749
#	260474
#	278087
#	291900
#	306938
#	321458
#
# Disc length: 4472 seconds
#
# Revision: 8
# Processed by: cddbd v1.5.2PL0 Copyright (c) Steve Scherf et al.
# Submitted via: CDex 1.51
#
DISCID=53117616
DTITLE=Various Artist - City Jazz - Vol. 08-10  { 1939-1940 }
DYEAR=2002
DGENRE=Jazz
TTITLE0=Fats Waller - I'm Crazy About My Baby  [1939]
TTITLE1=Jelly Roll Morton - Oh! Didn't He Ramble ¿  [1939]
TTITLE2=Jerry Jerome and Charlie Christian - Stardust  [1939]
TTITLE3=Jerry Jerome and Charlie Christian - I Got Rhythm  [1939]
TTITLE4=Duke Ellington - The Sergeant Was Shy  [1939]
TTITLE5=Coleman Hawkins - Body And Soul  [1939]
TTITLE6=Duke Ellington - Grievin'  [1939]
TTITLE7=Earl Hines - Rosetta  [1939]
TTITLE8=Jimmy Yancey - Yancey's Bugle Call  [1939]
TTITLE9=Lionel Hampton - The Munson Street Breakdown  [1939]
TTITLE10=Jess Stacy - Clarinet Blues  [1939]
TTITLE11=Benny Goodman - Gone With That Wind  [1940]
TTITLE12=Duke Ellington - Ko-Ko  [1940]
TTITLE13=Duke Ellington - Conga Brava  [1940]
TTITLE14=Duke Ellington - Concerto For Cootie  [1940]
TTITLE15=Count Basie - Tickle Toe  [1940]
TTITLE16=Bechet-Spanier Big Four - China Boy  [1940]
TTITLE17=Art Tatum - Begin The Beguine  [1940]
TTITLE18=Louis Armstrong - Down In Honky Tonk Town  [1940]
TTITLE19=Duke Ellington - Don't Get Around Much Anymore  [1940]
TTITLE20=Duke Ellington - Cotton Tail  [1940]
TTITLE21=Benny Carter - Night Hop  [1940]
EXTD=August 1939 to May 1940 YEAR: 2002
EXTT0=
EXTT1=(with Sidney Bechet)
EXTT2=
EXTT3=
EXTT4=
EXTT5=
EXTT6=
EXTT7=
EXTT8=
EXTT9=
EXTT10=
EXTT11=(with Count Basie, Lionel Hampton)
EXTT12=
EXTT13=
EXTT14=
EXTT15=
EXTT16=
EXTT17=
EXTT18=
EXTT19=
EXTT20=
EXTT21=
PLAYORDER=
